<svg width="70" height="63" viewBox="0 0 70 63" fill="none" xmlns="http://www.w3.org/2000/svg">
<mask id="mask0_57_71" style="mask-type:luminance" maskUnits="userSpaceOnUse" x="0" y="0" width="70" height="63">
<path d="M2 39.5C2 38.395 2.34613 37.3352 2.96224 36.5538C3.57836 35.7724 4.41399 35.3334 5.2853 35.3334H11.8559V60.3334H5.2853C4.41399 60.3334 3.57836 59.8944 2.96224 59.113C2.34613 58.3316 2 57.2718 2 56.1667V39.5ZM57.8501 35.3334H64.4207C65.2921 35.3334 66.1277 35.7724 66.7438 36.5538C67.3599 37.3352 67.7061 38.395 67.7061 39.5V56.1667C67.7061 57.2718 67.3599 58.3316 66.7438 59.113C66.1277 59.8944 65.2921 60.3334 64.4207 60.3334H57.8501V35.3334Z" fill="white"/>
<path d="M11.8559 56.1667V31.1667C11.8559 15.0583 22.152 2 34.853 2C47.554 2 57.8501 15.0583 57.8501 31.1667V56.1667M11.8559 35.3333H5.2853C4.41399 35.3333 3.57836 35.7723 2.96224 36.5537C2.34613 37.3351 2 38.3949 2 39.5V56.1667C2 57.2717 2.34613 58.3315 2.96224 59.1129C3.57836 59.8943 4.41399 60.3333 5.2853 60.3333H11.8559V35.3333ZM57.8501 35.3333H64.4208C65.2921 35.3333 66.1277 35.7723 66.7438 36.5537C67.3599 37.3351 67.7061 38.3949 67.7061 39.5V56.1667C67.7061 57.2717 67.3599 58.3315 66.7438 59.1129C66.1277 59.8943 65.2921 60.3333 64.4208 60.3333H57.8501V35.3333Z" stroke="white" stroke-width="4" stroke-linecap="round" stroke-linejoin="round"/>
<path d="M21.7118 47.8334H28.2824L31.5677 35.3334L38.1383 60.3334L41.4236 47.8334H47.9942" stroke="white" stroke-width="4" stroke-linecap="round" stroke-linejoin="round"/>
</mask>
<g mask="url(#mask0_57_71)">
<path d="M-4.57062 -18.8334H74.2766V81.1666H-4.57062V-18.8334Z" fill="#01AEE7"/>
</g>
</svg>
